# xmcd
#
# Track frame offsets: 
#        150
#        13605
#        24927
#        36472
#        46650
#        58395
#        69732
#        79297
#        93690
#        103092
#        114742
#        126435
#
# Disc length: 1849 seconds
#
# Revision: 3
# Processed by: cddbd v1.5.2PL0 Copyright (c) Steve Scherf et al.
# Submitted via: ExactAudioCopyFreeDBPlugin 1.0
#
DISCID=ab07370c
DTITLE=Johnny Cash - Greatest Hits  [CD 3] A Thing Called Love
DYEAR=1993
DGENRE=Country
TTITLE0=If I Were A Carpenter
TTITLE1=Seasons Of My Heart
TTITLE2=I Walk The Line
TTITLE3=Loving Gift, The
TTITLE4=I Still Miss Someone
TTITLE5=Thing Called Love, A
TTITLE6=You Beat All I Ever Saw
TTITLE7=Happy To Be With You
TTITLE8=All Over Again
TTITLE9=Ring Of Fire
TTITLE10=Flesh And Blood
TTITLE11=Jackson
EXTD=
EXTT0=
EXTT1=
EXTT2=
EXTT3=
EXTT4=
EXTT5=
EXTT6=
EXTT7=
EXTT8=
EXTT9=
EXTT10=
EXTT11=
PLAYORDER=
